<?xml version="1.0" encoding="UTF-8" standalone="no"?>
<svg
   xml:space="preserve"
   version="1.1"
   style="shape-rendering:geometricPrecision;text-rendering:geometricPrecision;image-rendering:optimizeQuality;"
   viewBox="0 0 333.33 416.66249999999997"
   x="0px"
   y="0px"
   fill-rule="evenodd"
   clip-rule="evenodd"
   id="svg2"
   sodipodi:docname="terminal.svg"
   inkscape:version="1.3.2 (091e20ef0f, 2023-11-25)"
   xmlns:inkscape="http://www.inkscape.org/namespaces/inkscape"
   xmlns:sodipodi="http://sodipodi.sourceforge.net/DTD/sodipodi-0.dtd"
   xmlns="http://www.w3.org/2000/svg"
   xmlns:svg="http://www.w3.org/2000/svg"><sodipodi:namedview
     id="namedview2"
     pagecolor="#505050"
     bordercolor="#eeeeee"
     borderopacity="1"
     inkscape:showpageshadow="0"
     inkscape:pageopacity="0"
     inkscape:pagecheckerboard="0"
     inkscape:deskcolor="#505050"
     inkscape:zoom="0.56640566"
     inkscape:cx="165.95879"
     inkscape:cy="209.21401"
     inkscape:window-width="1105"
     inkscape:window-height="696"
     inkscape:window-x="0"
     inkscape:window-y="0"
     inkscape:window-maximized="1"
     inkscape:current-layer="svg2" /><defs
     id="defs1"><style
       type="text/css"
       id="style1">
   
    .fil0 {fill:black;fill-rule:nonzero}
   
  </style></defs><g
     id="g1"
     transform="matrix(0.69024969,0,0,0.69024969,60.638428,74.204364)"><path
       class="fil0"
       d="m 58.7,15.85 h 215.92 c 15.24,0 29.08,6.23 39.11,16.26 10.03,10.04 16.26,23.88 16.26,39.11 V 262.1 c 0,15.24 -6.23,29.08 -16.26,39.12 -10.03,10.03 -23.88,16.26 -39.11,16.26 H 58.7 c -15.24,0 -29.08,-6.23 -39.11,-16.26 C 9.56,291.18 3.33,277.34 3.33,262.1 V 71.22 C 3.33,55.99 9.56,42.14 19.59,32.11 29.63,22.08 43.47,15.85 58.7,15.85 Z m 139.5,220.84 c -4.23,0 -7.66,-3.43 -7.66,-7.66 0,-4.23 3.43,-7.66 7.66,-7.66 h 45.2 c 4.23,0 7.66,3.43 7.66,7.66 0,4.23 -3.43,7.66 -7.66,7.66 z M 76.12,251.34 c -3.3,2.63 -8.11,2.07 -10.74,-1.23 -2.63,-3.3 -2.07,-8.11 1.22,-10.74 L 157.88,166.66 66.6,93.95 c -3.3,-2.63 -3.85,-7.43 -1.22,-10.74 2.63,-3.3 7.43,-3.85 10.74,-1.23 l 98.68,78.61 c 0.48,0.37 0.93,0.81 1.33,1.31 2.63,3.3 2.08,8.11 -1.22,10.74 z M 274.62,31.16 H 58.7 c -11.01,0 -21.02,4.51 -28.29,11.77 -7.26,7.26 -11.78,17.28 -11.78,28.29 V 262.1 c 0,11.01 4.51,21.03 11.78,28.29 7.26,7.26 17.28,11.77 28.29,11.77 h 215.92 c 11.01,0 21.02,-4.51 28.29,-11.77 7.26,-7.26 11.78,-17.28 11.78,-28.29 V 71.22 c 0,-11.01 -4.51,-21.02 -11.78,-28.29 -7.26,-7.26 -17.28,-11.77 -28.29,-11.77 z"
       id="path1" /></g></svg>
