<?xml version="1.0" encoding="UTF-8" standalone="no"?>
<svg
   version="1.1"
   x="0px"
   y="0px"
   viewBox="0 0 64 80"
   style="enable-background:new 0 0 64 64;"
   xml:space="preserve"
   id="svg2"
   sodipodi:docname="neural-net.svg"
   inkscape:version="1.3.2 (091e20ef0f, 2023-11-25)"
   xmlns:inkscape="http://www.inkscape.org/namespaces/inkscape"
   xmlns:sodipodi="http://sodipodi.sourceforge.net/DTD/sodipodi-0.dtd"
   xmlns="http://www.w3.org/2000/svg"
   xmlns:svg="http://www.w3.org/2000/svg"><defs
     id="defs2" /><sodipodi:namedview
     id="namedview2"
     pagecolor="#505050"
     bordercolor="#eeeeee"
     borderopacity="1"
     inkscape:showpageshadow="0"
     inkscape:pageopacity="0"
     inkscape:pagecheckerboard="0"
     inkscape:deskcolor="#505050"
     inkscape:zoom="5.9"
     inkscape:cx="31.949153"
     inkscape:cy="40.169492"
     inkscape:window-width="2228"
     inkscape:window-height="1409"
     inkscape:window-x="0"
     inkscape:window-y="0"
     inkscape:window-maximized="1"
     inkscape:current-layer="svg2" /><path
     d="m 17.736286,39.018181 c -0.957576,-0.462373 -2.026413,-0.729582 -3.159088,-0.729582 -4.02273,0 -7.2958156,3.273085 -7.2958156,7.295816 0,4.02273 3.2730856,7.295815 7.2958156,7.295815 2.524352,0 4.752312,-1.289535 6.062823,-3.243902 l 6.89181,3.450009 c -0.118557,0.520739 -0.186955,1.061541 -0.186955,1.617847 0,4.022731 3.273085,7.295816 7.295815,7.295816 4.022731,0 7.295816,-3.273085 7.295816,-7.295816 0,-1.512057 -0.462372,-2.917414 -1.253968,-4.083833 l 9.684283,-10.12568 c 1.214753,0.901034 2.712219,1.441836 4.337362,1.441836 4.022731,0 7.295816,-3.273085 7.295816,-7.295816 0,-4.02273 -3.273085,-7.295815 -7.295816,-7.295815 -1.683509,0 -3.230222,0.578193 -4.466863,1.539417 L 40.39709,19.044061 c 0.961223,-1.236641 1.539417,-2.783353 1.539417,-4.466863 0,-4.02273 -3.273085,-7.2958156 -7.295816,-7.2958156 -4.02273,0 -7.295815,3.2730856 -7.295815,7.2958156 0,0.554482 0.06749,1.09346 0.186043,1.613287 l -6.467741,2.356549 c -1.212929,-2.353813 -3.661587,-3.969836 -6.48598,-3.969836 -4.02273,0 -7.2958156,3.273085 -7.2958156,7.295816 0,4.02273 3.2730856,7.295815 7.2958156,7.295815 1.03783,0 2.023677,-0.220698 2.918326,-0.61376 l 3.356988,5.649697 z m -3.159088,12.038095 c -3.017732,0 -5.4718617,-2.45413 -5.4718617,-5.471861 0,-3.017732 2.4541297,-5.471862 5.4718617,-5.471862 3.017732,0 5.471862,2.45413 5.471862,5.471862 0,3.017731 -2.45413,5.471861 -5.471862,5.471861 z m 6.875394,-3.05421 c 0.26721,-0.757853 0.420422,-1.569513 0.420422,-2.417651 0,-2.23708 -1.014119,-4.239781 -2.603694,-5.578563 l 2.622845,-4.051002 7.907753,13.306656 c -0.665744,0.592785 -1.222962,1.302303 -1.636087,2.100283 z M 34.640691,21.873014 c 1.68351,0 3.230223,-0.578194 4.466863,-1.539417 l 9.841144,9.841143 c -0.590049,0.758765 -1.031446,1.635175 -1.285888,2.589103 l -5.729039,-0.787948 c -9.12e-4,-0.02371 0.0027,-0.04742 0.0027,-0.07114 0,-4.02273 -3.273085,-7.295815 -7.295816,-7.295815 -2.524352,0 -4.753224,1.289535 -6.062823,3.243902 l -1.087988,-0.543539 3.992635,-6.165876 c 0.956664,0.462373 2.025501,0.729582 3.158176,0.729582 z m 0.911977,25.598281 v -8.334557 c 2.963925,-0.372087 5.375192,-2.526177 6.130309,-5.355129 l 5.72904,0.787948 c 0,0.02371 -0.0036,0.04742 -0.0036,0.07113 0,1.741876 0.614672,3.340572 1.636998,4.596364 L 39.469609,49.24965 C 38.396212,48.298458 37.045574,47.659162 35.552668,47.471295 Z M 34.640691,26.432899 c 3.017732,0 5.471862,2.45413 5.471862,5.471861 0,3.017732 -2.45413,5.471862 -5.471862,5.471862 -3.017732,0 -5.471862,-2.45413 -5.471862,-5.471862 0,-3.017731 2.45413,-5.471861 5.471862,-5.471861 z m -6.875394,3.05421 c -0.267209,0.757853 -0.420421,1.569513 -0.420421,2.417651 0,3.713571 2.790649,6.781461 6.383838,7.23289 v 8.334557 c -0.864554,0.108525 -1.680773,0.367527 -2.424035,0.751469 l -8.306286,-13.977871 3.493784,-5.395256 z m 6.875394,30.688937 c -3.017732,0 -5.471862,-2.45413 -5.471862,-5.471862 0,-3.017731 2.45413,-5.471861 5.471862,-5.471861 3.017732,0 5.471862,2.45413 5.471862,5.471861 0,3.017732 -2.45413,5.471862 -5.471862,5.471862 z M 54.704184,29.168829 c 3.017732,0 5.471862,2.45413 5.471862,5.471862 0,3.017732 -2.45413,5.471862 -5.471862,5.471862 -3.017731,0 -5.471861,-2.45413 -5.471861,-5.471862 0,-3.017732 2.45413,-5.471862 5.471861,-5.471862 z M 34.640691,9.1053363 c 3.017732,0 5.471862,2.4541297 5.471862,5.4718617 0,3.017732 -2.45413,5.471862 -5.471862,5.471862 -3.017732,0 -5.471862,-2.45413 -5.471862,-5.471862 0,-3.017732 2.45413,-5.4718617 5.471862,-5.4718617 z m -6.48598,8.7978417 c 0.445957,0.865466 1.056069,1.630615 1.793859,2.252583 l -4.100249,6.332768 -4.395729,-2.197864 c 0.26721,-0.757853 0.420422,-1.569513 0.420422,-2.417651 0,-0.554482 -0.06749,-1.093461 -0.186044,-1.613287 z M 9.1053363,21.873014 c 0,-3.017732 2.4541297,-5.471862 5.4718617,-5.471862 3.017732,0 5.471862,2.45413 5.471862,5.471862 0,3.017732 -2.45413,5.471862 -5.471862,5.471862 -3.017732,0 -5.4718617,-2.45413 -5.4718617,-5.471862 z m 9.9542287,5.744543 c 0.611024,-0.477876 1.147267,-1.04695 1.580456,-1.69263 l 4.210598,2.104843 -2.891879,4.465951 z"
     id="path1"
     style="stroke-width:0.911977" /><text
     x="5.4574285"
     y="82.063492"
     fill="#000000"
     font-size="4.55989px"
     font-weight="bold"
     font-family="'Helvetica Neue', Helvetica, Arial-Unicode, Arial, Sans-serif"
     id="text2"
     style="stroke-width:0.911977" /></svg>
